<svg xmlns="http://www.w3.org/2000/svg" viewBox="0 0 135.15 55"><defs><style>.cls-1{fill:#fff;}</style></defs><title>logo</title><g id="レイヤー_2" data-name="レイヤー 2"><g id="_header" data-name="#header"><path class="cls-1" d="M63.83,53.43A1.94,1.94,0,0,1,61.67,55a2.26,2.26,0,0,1-2.46-2.53,2.29,2.29,0,0,1,2.45-2.57,2.4,2.4,0,0,1,1.63.52,1.5,1.5,0,0,1,.5.95h-.87a1.17,1.17,0,0,0-1.32-1.14c-.68,0-1.45.3-1.45,2.22,0,2.22,1,2.22,1.49,2.22a1.2,1.2,0,0,0,1.3-1.24Z"/><path class="cls-1" d="M66.36,53.62l-.44,1.29H65L66.87,50h1.18l1.83,4.92H69l-.44-1.29Zm2.08-.33-1-2.83-1,2.83Z"/><path class="cls-1" d="M72,52.56v2.35H71.2V50H75v.34H72v1.9h2.72v.33Z"/><path class="cls-1" d="M77.08,54.58H80v.33H76.26V50h3.66v.34H77.08v1.92h2.68v.33H77.08Z"/><path class="cls-1" d="M87.91,53.34a1.86,1.86,0,0,0,.16-.63H89a3.24,3.24,0,0,1-.58,1.16l1,1H88.27l-.49-.51a2.66,2.66,0,0,1-3.22.11,1.13,1.13,0,0,1-.31-.85c0-.87.75-1.23,1.36-1.54-.41-.5-.53-.65-.53-1,0-.6.42-1.19,1.41-1.19.72,0,1.35.31,1.35,1s-.9,1-1.2,1.12Zm-2-.94a1.43,1.43,0,0,0-.77,1.27.91.91,0,0,0,1,1A1.62,1.62,0,0,0,87.42,54Zm1.25-1.55c0-.52-.38-.62-.69-.62-.52,0-.64.32-.64.58s.14.57.62,1C86.65,51.62,87.11,51.34,87.11,50.85Z"/><path class="cls-1" d="M93.67,50H95.9a2.2,2.2,0,0,1,2.24,2.49,2.19,2.19,0,0,1-2.26,2.43H93.67Zm.82.34v4.25h1.15c1.53,0,1.62-1.54,1.62-2.13,0-1.27-.45-2.12-1.65-2.12Z"/><path class="cls-1" d="M99.66,50h.82v4.92h-.82Z"/><path class="cls-1" d="M102.09,50h1l2.57,4.28V50h.82v4.92h-1l-2.57-4.28v4.28h-.83Z"/><path class="cls-1" d="M108.09,50h.83v4.92h-.83Z"/><path class="cls-1" d="M110.53,50h1l2.58,4.28V50h.82v4.92h-1l-2.57-4.28v4.28h-.82Z"/><path class="cls-1" d="M120.88,52.39v1.68a1.3,1.3,0,0,1-.57.57,3.11,3.11,0,0,1-1.52.36,2.27,2.27,0,0,1-2.45-2.57,2.33,2.33,0,0,1,2.5-2.53,2.21,2.21,0,0,1,1.65.59,1.6,1.6,0,0,1,.39.93H120c-.12-.94-.58-1.18-1.24-1.18-.48,0-1.51,0-1.51,2.18a4.39,4.39,0,0,0,.23,1.42,1.4,1.4,0,0,0,1.36.82A1.27,1.27,0,0,0,120,54V52.72h-1.2v-.33Z"/><path class="cls-1" d="M105,29.91h11.84V21.45H105v3.68a53.46,53.46,0,0,0-4.63-5.95V16.57h3.69v-1h-3.69V8h-3.6V15.6H92.89v1h3.4A79,79,0,0,1,92.35,34l.66.49a91,91,0,0,0,3.75-8.63V44h3.6V19.9a78.84,78.84,0,0,1,2.44,8.54L105,25.53Zm3.28-7.49h5.28v6.52h-5.28Z"/><path class="cls-1" d="M112.31,37.73A40.15,40.15,0,0,0,117,32l-4.26-1.07a47.63,47.63,0,0,1-1.24,6.89,73.3,73.3,0,0,1-8.55.79l1.57,4c5.11-1.42,10-2.71,14.95-5.35l-.23-.69C116.84,37,114.14,37.44,112.31,37.73Z"/><path class="cls-1" d="M106.07,31.6a40.84,40.84,0,0,1,1.17,5.77l3.2-1.9a17.46,17.46,0,0,0-3.77-4.25Z"/><path class="cls-1" d="M135.05,14.6a23.94,23.94,0,0,1-6.28,1.87V8H125v8.83l-.57,0c-3.49.06-6.75,0-6.75,0-1.9.05-3.51.12-4.91.24V12.84h5.32v-1h-5.32V8h-3.64v3.89h-5.54v1h5.54v4.82A13,13,0,0,0,104.31,20a.11.11,0,0,0,0,.09c0,.1.1.05.1.05,4.89-2.15,8.28-2,12.47-2.25,0,0,2,0,6,0,.73,0,1.48,0,2.24,0v11a34.19,34.19,0,0,0-6-7.17l-.74.47a55.61,55.61,0,0,1,3.18,9.36L125,29.18V39.32c0,1.44-.18,3-2.41,3a11.74,11.74,0,0,1-3-.54v1A21.48,21.48,0,0,0,125.67,44c2.92,0,3.1-1.64,3.1-4.67V17.44a13.45,13.45,0,0,0,6.31-2.68s.08-.06.07-.11S135.05,14.6,135.05,14.6Z"/><path class="cls-1" d="M87.92,19.91c-4.83,2.38-12.11,2.26-15,2.26a21.54,21.54,0,0,1-4.48-4.42H80.3v-1H64.72a27.89,27.89,0,0,0,1.54-4.1H81.83v-1H66.51c.21-.84.4-1.7.55-2.6L61.72,8a31.58,31.58,0,0,1-.56,3.69H48.52v1H61a35.38,35.38,0,0,1-1.23,4.1H50.05v1h9.29a24.56,24.56,0,0,1-2.42,4.42H45.68v1H56.22a29.59,29.59,0,0,1-10.49,8.45l.15.9a32,32,0,0,0,14.69-9.35H71c2.39,3.28,6.06,7.16,11,9.18l2.77-4.73a34.42,34.42,0,0,1-10.5-4.45c8.23,0,11.26-1.11,13.6-3,0,0,.12-.1.12-.17S87.92,19.91,87.92,19.91ZM61.38,22.17a27.32,27.32,0,0,0,2.86-4.42h3.49a33.43,33.43,0,0,0,2.57,4.42Z"/><path class="cls-1" d="M66.21,35.17a7,7,0,0,0,.34-.8H81.3v-1H66.87a24.57,24.57,0,0,0,.87-5h6v-1H56.53v1h6.08a16,16,0,0,1-.72,5H49.06v1H61.55c-1.47,3.61-5.49,7.49-14.49,8.75l.43.79s12.78.05,17.64-6.78A65.56,65.56,0,0,1,78.31,44l4.22-4.56a133.5,133.5,0,0,0-17-3A9.55,9.55,0,0,0,66.21,35.17Z"/><path class="cls-1" d="M37.87,15.19a.73.73,0,0,1,.13.45.79.79,0,0,1-.15.49.6.6,0,0,1-.5.23.63.63,0,0,1-.48-.2.79.79,0,0,1-.15-.49.78.78,0,0,1,.13-.46.58.58,0,0,1,.5-.24A.59.59,0,0,1,37.87,15.19Zm-.16.84a.71.71,0,0,0,.11-.39.55.55,0,0,0-.12-.37.39.39,0,0,0-.33-.14.42.42,0,0,0-.34.14.61.61,0,0,0-.13.41.65.65,0,0,0,.11.37.43.43,0,0,0,.36.15A.37.37,0,0,0,37.71,16Z"/><path class="cls-1" d="M38.94,15h.91v.16h-.73v.4h.65v.16h-.65v.6h-.18Z"/><path class="cls-1" d="M35.91,17.26v.15h-.44v1.16h-.18V17.41h-.45v-.15Z"/><path class="cls-1" d="M36.79,17.26H37v.54h.67v-.54h.18v1.31h-.18V18H37v.61h-.18Z"/><path class="cls-1" d="M38.84,17.26h.95v.16H39v.4h.72V18H39v.44h.79v.16h-1Z"/><path class="cls-1" d="M33.05,16.19c0,.33-.33.61-1,.84a7.24,7.24,0,0,1-2.37.34,21.94,21.94,0,0,1-4.43-.55,7.26,7.26,0,0,0-2.35,1.83,20.64,20.64,0,0,0-2.32,3.54l1,.16c.38-.86.91-1.29,1.61-1.29.48,0,.71.18.71.55a.8.8,0,0,1-.47.72,2.54,2.54,0,0,1-1.25.28H22a4,4,0,0,0-.25.53,2.66,2.66,0,0,1-.73,1,1.38,1.38,0,0,1-.88.4c-.1,0-.14,0-.14-.06s0-.06.1-.08c.46-.14.93-.76,1.4-1.85-.19,0-.47-.06-.84-.13l-.19,0-.41.75a17,17,0,0,1-1.4,2.21,7.25,7.25,0,0,1-1.45,1.3,8.64,8.64,0,0,1-5,1.71,4.46,4.46,0,0,1-2.5-.64,1.91,1.91,0,0,1-1-1.64A1.31,1.31,0,0,1,9,25.2a.86.86,0,0,1,.7-.35.59.59,0,0,1,.67.67.78.78,0,0,1-.21.54.65.65,0,0,1-.5.22.43.43,0,0,1-.49-.47q0-.24-.06-.24c-.13,0-.19.18-.19.53a1.72,1.72,0,0,0,.88,1.44,3.67,3.67,0,0,0,2.12.6A5.76,5.76,0,0,0,15.49,27a16,16,0,0,0,3.43-4c.11-.16.27-.39.47-.72H19.2a1.57,1.57,0,0,0-1.55.87c0,.09-.07.14-.11.14s-.08,0-.08-.08c0-.27.19-.52.56-.76a2.21,2.21,0,0,1,1.2-.36h.3A13.8,13.8,0,0,1,25,16.76c-.52-.11-1.05-.24-1.61-.39a17.63,17.63,0,0,0-4.18-.7,5.24,5.24,0,0,0-.57,0,4,4,0,0,1,.43,1.87,6.15,6.15,0,0,1-1.71,4.13,4.91,4.91,0,0,1-3.66,1.94,1.76,1.76,0,0,1-1.33-.52,1.79,1.79,0,0,1-.52-1.35,5.54,5.54,0,0,1,2-3.84,8.8,8.8,0,0,1,4.4-2.45,2.62,2.62,0,0,0-2.34-1.14,6,6,0,0,0-4.67,2.51.76.76,0,0,1-.19.17.08.08,0,0,1-.08-.07q0-.18.84-1a5.89,5.89,0,0,1,4-1.81,3,3,0,0,1,2.68,1.26A9.68,9.68,0,0,1,21,15.15a9.32,9.32,0,0,1,1.65.14c.5.1,1.71.37,3.62.83a11.69,11.69,0,0,1,4.2-.87,5.57,5.57,0,0,1,1.86.26C32.82,15.68,33.05,15.91,33.05,16.19Zm-14.32.9a3.05,3.05,0,0,0-.33-1.35,7.68,7.68,0,0,0-4.33,2.2,5.42,5.42,0,0,0-2,3.8,1.72,1.72,0,0,0,.45,1.2,1.44,1.44,0,0,0,1.11.49c1.17,0,2.31-.7,3.44-2.09A6.77,6.77,0,0,0,18.73,17.09Zm5,4.54c0-.29-.16-.43-.49-.43s-.81.34-1.11,1l-.08.18h.25a2.12,2.12,0,0,0,1-.22A.63.63,0,0,0,23.77,21.63Zm9.09-5.42q0-.32-.66-.54a4.86,4.86,0,0,0-1.58-.22,10.23,10.23,0,0,0-4,.76l1.34.3a13.9,13.9,0,0,0,3.1.39,3.48,3.48,0,0,0,1.27-.21Q32.86,16.48,32.86,16.21Z"/><path class="cls-1" d="M26.79,22.37a2.2,2.2,0,0,1-.29,1.09,2.14,2.14,0,0,1-1.89,1.09,2.25,2.25,0,0,1-1.12-.29,2.22,2.22,0,0,1-.8-.81,2.18,2.18,0,0,1-.29-1.1,2.1,2.1,0,0,1,.66-1.56,2.23,2.23,0,0,1,.71-.46,2.15,2.15,0,0,1,.83-.16,2.25,2.25,0,0,1,.82.15,2.18,2.18,0,0,1,.7.46,2.06,2.06,0,0,1,.49.7A2.18,2.18,0,0,1,26.79,22.37Zm-.5,0a2.43,2.43,0,0,0-.29-1.3,1.43,1.43,0,0,0-.68-.62,1.78,1.78,0,0,0-.72-.16,2.14,2.14,0,0,0-.54.08,1.61,1.61,0,0,0-1,1,2.79,2.79,0,0,0-.17,1,3,3,0,0,0,.14.94,1.88,1.88,0,0,0,.39.65,1.46,1.46,0,0,0,.55.36,1.68,1.68,0,0,0,.63.12,1.8,1.8,0,0,0,.59-.11,1.61,1.61,0,0,0,.54-.33,1.8,1.8,0,0,0,.4-.63A2.84,2.84,0,0,0,26.29,22.38Z"/><path class="cls-1" d="M27.35,20.35H27.3v-.06h1.43a1.3,1.3,0,0,1,.59.11,1,1,0,0,1,.57.62,1.13,1.13,0,0,1,.06.36.94.94,0,0,1-.1.43.91.91,0,0,1-.29.36,1.15,1.15,0,0,1-.49.2h0a1.72,1.72,0,0,1,.69.72l.38.63a1.73,1.73,0,0,0,.4.54.63.63,0,0,0,.31.13v0h-.76L30,24.32a1.25,1.25,0,0,1-.09-.12,1.05,1.05,0,0,1-.08-.13l-.07-.1-.5-.82a2.31,2.31,0,0,0-.3-.4,1.31,1.31,0,0,0-.29-.23,1,1,0,0,0-.25-.08l-.25,0v1.52a.41.41,0,0,0,.45.46v0H27.3v0a.79.79,0,0,0,.22,0,.42.42,0,0,0,.16-.14.54.54,0,0,0,.06-.27V20.8a.43.43,0,0,0-.12-.35A.39.39,0,0,0,27.35,20.35Zm.82,2h.23A1.33,1.33,0,0,0,29,22.2a.7.7,0,0,0,.35-.3,1,1,0,0,0,.11-.49,1.14,1.14,0,0,0-.1-.47.83.83,0,0,0-.32-.38,1.06,1.06,0,0,0-.62-.16l-.26,0Z"/><path class="cls-1" d="M31.09,20.34v-.05h2.47v.65h0c0-.35-.24-.52-.7-.52H32v1.89h.76a1,1,0,0,0,.4-.08.37.37,0,0,0,.21-.33h0v.94h0a.52.52,0,0,0-.1-.25.29.29,0,0,0-.14-.11.27.27,0,0,0-.12,0l-.21,0H32v1.48a.68.68,0,0,0,.06.29c0,.08.14.12.3.12h.62a.92.92,0,0,0,.36-.07.52.52,0,0,0,.23-.18,1,1,0,0,0,.14-.28h0l-.15.65H31.09v0h.05a.4.4,0,0,0,.26-.11.42.42,0,0,0,.13-.35V20.81a.67.67,0,0,0-.08-.33.32.32,0,0,0-.31-.14Z"/><path class="cls-1" d="M36.4,21.09h0a1,1,0,0,0-.26-.53.88.88,0,0,0-1-.12.78.78,0,0,0-.29.31.93.93,0,0,0-.1.45.9.9,0,0,0,.06.34.8.8,0,0,0,.18.27,1.6,1.6,0,0,0,.28.22l.43.25a2.82,2.82,0,0,1,.71.5.9.9,0,0,1,.26.68,1,1,0,0,1-.14.51,1.08,1.08,0,0,1-.41.41,1.46,1.46,0,0,1-.69.16,1.53,1.53,0,0,1-.45-.06,3.25,3.25,0,0,1-.4-.15l-.12,0a.08.08,0,0,0-.08,0s0,.09,0,.19h-.05V23.48h.05a1.06,1.06,0,0,0,1.1.93,1,1,0,0,0,.51-.12.6.6,0,0,0,.26-.29.81.81,0,0,0,.08-.34.77.77,0,0,0-.22-.57,2.88,2.88,0,0,0-.64-.45l-.45-.25a1.93,1.93,0,0,1-.29-.24.89.89,0,0,1-.23-.34,1.06,1.06,0,0,1-.09-.45,1.15,1.15,0,0,1,.15-.56,1.21,1.21,0,0,1,.44-.43,1.28,1.28,0,0,1,.65-.16,1.87,1.87,0,0,1,.56.09.21.21,0,0,0,.12,0c.06,0,.11,0,.13-.13h0Z"/><path class="cls-1" d="M40.75,21.1h0a.65.65,0,0,0-.23-.53,1,1,0,0,0-.51-.12h-.83v3.49a.41.41,0,0,0,.46.46v0H38.26v0a.56.56,0,0,0,.32-.11.45.45,0,0,0,.13-.35V20.45h-.83a1,1,0,0,0-.51.12.68.68,0,0,0-.24.53h0v-1h0l.08.11.09.06.13,0h2.86a.47.47,0,0,0,.41-.21h0Z"/><path class="cls-1" d="M16.56,7.27a3,3,0,0,1-.73,1.1,12.27,12.27,0,0,1-1.48,1.49,16.77,16.77,0,0,0-1,1.78,21.66,21.66,0,0,0-.77,2.22,9.2,9.2,0,0,1-1.42,2.93,7.56,7.56,0,0,1-2.37,1.93,9.13,9.13,0,0,1-4.48,1.22A4.51,4.51,0,0,1,1.2,18.88,3.51,3.51,0,0,1,0,16.11a4.81,4.81,0,0,1,.9-2.77,6.64,6.64,0,0,1,2.48-2.13,6.36,6.36,0,0,1,2.91-.81l.19,0a4.6,4.6,0,0,1,.14-.83l-.41,0a4,4,0,0,1-2.42-.67,2.12,2.12,0,0,1-.9-1.78A4.19,4.19,0,0,1,5.07,3.75a8.67,8.67,0,0,1,5-1.49,5.74,5.74,0,0,1,3.67,1.12A5,5,0,0,1,15.2,3c.61,0,.91.25.91.76A2.8,2.8,0,0,1,15.05,5.5a6.25,6.25,0,0,1,.07.87,4.7,4.7,0,0,1-.59,2.17c-.12.24-.2.35-.25.35s0,0-.06-.05a.42.42,0,0,1,0-.1A4.6,4.6,0,0,0,15,6.33q0-.39,0-.72A18.21,18.21,0,0,1,11.41,8,14.63,14.63,0,0,1,7.72,9.46a4.05,4.05,0,0,0-.46,1,2.56,2.56,0,0,1,2.48,2.7v.19q1.88-.51,4.61-3.72A14.16,14.16,0,0,1,15.61,8c.42-.49.71-.73.87-.73A.07.07,0,0,1,16.56,7.27Zm-2.54,3q-2.53,2.82-4.31,3.3A4.28,4.28,0,0,1,8.5,15.9,2.94,2.94,0,0,1,6.43,17a1.32,1.32,0,0,1-.93-.34,1.09,1.09,0,0,1-.37-.84,1.38,1.38,0,0,1,.35-.93,1,1,0,0,1,.79-.42c.44,0,.66.21.66.61a.71.71,0,0,1-.22.49.7.7,0,0,1-.48.21c-.33,0-.5-.14-.5-.44a.8.8,0,0,1,0-.21.68.68,0,0,0,0-.14s0,0-.06,0-.19.1-.28.3a1.33,1.33,0,0,0-.14.58.94.94,0,0,0,.32.74,1.16,1.16,0,0,0,.8.29,2.83,2.83,0,0,0,2-1,3.75,3.75,0,0,0,1.15-2.17,3.43,3.43,0,0,1-.48,0,2.39,2.39,0,0,1-1.91-.81,3.31,3.31,0,0,1-.7-2.21,6.23,6.23,0,0,0-4.15,2A5.77,5.77,0,0,0,.54,16.68a2.72,2.72,0,0,0,1,2.21,4,4,0,0,0,2.65.85,6,6,0,0,0,4.05-1.57,24,24,0,0,0,4.22-5.58A27.11,27.11,0,0,1,14,10.25Zm-.46-6.81a5.43,5.43,0,0,0-3.45-1A8.64,8.64,0,0,0,5.26,3.91C3.8,4.89,3.06,6,3.06,7.14a1.94,1.94,0,0,0,.87,1.69,4.11,4.11,0,0,0,2.41.61h.33Q7.78,5.83,13.56,3.44Zm-4,10A2.53,2.53,0,0,0,9,11.56a2.92,2.92,0,0,0-1.79-.92,3.19,3.19,0,0,0-.14,1,1.73,1.73,0,0,0,.54,1.34,2,2,0,0,0,1.43.51A4.12,4.12,0,0,0,9.58,13.42Zm5.3-8a3.28,3.28,0,0,0-1.12-1.85A14,14,0,0,0,10.4,6,14.19,14.19,0,0,0,7.81,9.28a14.57,14.57,0,0,0,3.61-1.44A18,18,0,0,0,14.88,5.44Zm1-1.65c0-.42-.23-.63-.71-.63a3.2,3.2,0,0,0-1.31.37A3.47,3.47,0,0,1,15,5.32,2.39,2.39,0,0,0,15.93,3.79Z"/><path class="cls-1" d="M30.07,8.61V8.55h3v.8H33c0-.43-.28-.64-.85-.64H31.13V11h.93a1.22,1.22,0,0,0,.49-.09.44.44,0,0,0,.25-.41h.05v1.15H32.8a.59.59,0,0,0-.12-.3.37.37,0,0,0-.17-.14.42.42,0,0,0-.15,0l-.25,0h-1V13a.72.72,0,0,0,.08.35q.08.15.36.15h.75a1,1,0,0,0,.45-.08.62.62,0,0,0,.28-.22,1.35,1.35,0,0,0,.17-.34h.05l-.18.8h-3v-.06h.07a.49.49,0,0,0,.32-.13.55.55,0,0,0,.15-.43V9.19a.78.78,0,0,0-.1-.41.41.41,0,0,0-.37-.17Z"/><path class="cls-1" d="M36.48,9.52h-.06a1.09,1.09,0,0,0-.32-.64.94.94,0,0,0-.72-.28,1,1,0,0,0-.52.14,1,1,0,0,0-.35.37,1.21,1.21,0,0,0-.13.55,1.08,1.08,0,0,0,.08.42.87.87,0,0,0,.22.32,1.56,1.56,0,0,0,.34.27l.53.31a3.47,3.47,0,0,1,.86.61,1.09,1.09,0,0,1,.31.83,1.25,1.25,0,0,1-.16.62,1.29,1.29,0,0,1-.51.5,1.62,1.62,0,0,1-.83.19,1.91,1.91,0,0,1-.56-.07,2.34,2.34,0,0,1-.48-.18.41.41,0,0,0-.15,0,.09.09,0,0,0-.09.05.88.88,0,0,0-.06.23h-.06V12.45h.06a1.41,1.41,0,0,0,.48.84,1.35,1.35,0,0,0,.87.28,1.14,1.14,0,0,0,.62-.14.82.82,0,0,0,.32-.35,1,1,0,0,0,.09-.41A1,1,0,0,0,36,12a3.24,3.24,0,0,0-.79-.55l-.54-.31a1.83,1.83,0,0,1-.36-.29,1.2,1.2,0,0,1-.28-.41,1.35,1.35,0,0,1-.11-.55,1.27,1.27,0,0,1,.19-.68,1.38,1.38,0,0,1,.54-.53,1.56,1.56,0,0,1,.78-.2,2.13,2.13,0,0,1,.69.12.32.32,0,0,0,.15,0q.1,0,.15-.15h.06Z"/><path class="cls-1" d="M40,9.52h-.06a1.09,1.09,0,0,0-.32-.64.94.94,0,0,0-.72-.28,1,1,0,0,0-.52.14,1,1,0,0,0-.35.37,1.21,1.21,0,0,0-.13.55,1.08,1.08,0,0,0,.08.42.87.87,0,0,0,.22.32,1.56,1.56,0,0,0,.34.27l.53.31a3.47,3.47,0,0,1,.86.61,1.09,1.09,0,0,1,.31.83,1.25,1.25,0,0,1-.16.62,1.36,1.36,0,0,1-.51.5,1.62,1.62,0,0,1-.83.19,1.91,1.91,0,0,1-.56-.07,2.67,2.67,0,0,1-.49-.18.33.33,0,0,0-.14,0,.09.09,0,0,0-.09.05.88.88,0,0,0-.06.23h-.06V12.45h.06a1.41,1.41,0,0,0,.48.84,1.35,1.35,0,0,0,.87.28,1.14,1.14,0,0,0,.62-.14.82.82,0,0,0,.32-.35,1,1,0,0,0,.09-.41,1,1,0,0,0-.26-.7,3.24,3.24,0,0,0-.79-.55l-.54-.31a1.83,1.83,0,0,1-.36-.29,1.32,1.32,0,0,1-.39-1,1.27,1.27,0,0,1,.19-.68,1.31,1.31,0,0,1,.54-.53,1.56,1.56,0,0,1,.78-.2,2.13,2.13,0,0,1,.69.12.3.3,0,0,0,.15,0q.11,0,.15-.15H40Z"/><path class="cls-1" d="M20.22,11.1a2.61,2.61,0,0,1-.35,1.32,2.73,2.73,0,0,1-1,1,2.68,2.68,0,0,1-4-2.32,2.59,2.59,0,0,1,.8-1.9,2.85,2.85,0,0,1,.87-.57,2.67,2.67,0,0,1,1-.2,2.76,2.76,0,0,1,1.86.75A2.55,2.55,0,0,1,20,10,2.62,2.62,0,0,1,20.22,11.1Zm-.61,0a3,3,0,0,0-.35-1.58,1.86,1.86,0,0,0-.83-.76,2,2,0,0,0-1.54-.09,2,2,0,0,0-.67.38,2,2,0,0,0-.54.79,3.21,3.21,0,0,0-.21,1.24,3.25,3.25,0,0,0,.18,1.14,2,2,0,0,0,.48.8,1.82,1.82,0,0,0,.67.44,2.14,2.14,0,0,0,.76.14,2.11,2.11,0,0,0,.72-.13,1.78,1.78,0,0,0,.66-.41,2.09,2.09,0,0,0,.49-.77A3.43,3.43,0,0,0,19.61,11.11Z"/><path class="cls-1" d="M20.22,8.62V8.56h2a4.37,4.37,0,0,1,.76.07,3.47,3.47,0,0,1,.62.19,2.31,2.31,0,0,1,.47.26,2.42,2.42,0,0,1,.34.28,2.74,2.74,0,0,1,.41.54,2.6,2.6,0,0,1,.25.62,2.93,2.93,0,0,1,.08.67,2.39,2.39,0,0,1-.08.66,2,2,0,0,1-.24.58,1.92,1.92,0,0,1-.37.48,2.16,2.16,0,0,1-.5.39,2.2,2.2,0,0,1-.56.24,3.19,3.19,0,0,1-.85.09H20.22v-.06h.07a.4.4,0,0,0,.36-.18.7.7,0,0,0,.11-.37V9.19a.76.76,0,0,0-.06-.32.4.4,0,0,0-.17-.19.48.48,0,0,0-.24-.06Zm1.07.18v4a.81.81,0,0,0,.09.43.46.46,0,0,0,.29.18,3,3,0,0,0,.59,0,3.58,3.58,0,0,0,.93-.1,1.77,1.77,0,0,0,.73-.49,2.18,2.18,0,0,0,.42-.68,2.77,2.77,0,0,0,.16-1,3.36,3.36,0,0,0-.13-.89A2.17,2.17,0,0,0,24,9.55a2,2,0,0,0-.75-.61,2.5,2.5,0,0,0-1.11-.22A5.86,5.86,0,0,0,21.29,8.8Z"/><path class="cls-1" d="M25.09,8.62V8.56H27a4.37,4.37,0,0,1,.76.07,3.24,3.24,0,0,1,.62.19,2.31,2.31,0,0,1,.47.26,2,2,0,0,1,.34.28,2.41,2.41,0,0,1,.41.54,2.6,2.6,0,0,1,.25.62,2.46,2.46,0,0,1,.09.67,2.39,2.39,0,0,1-.09.66,2.27,2.27,0,0,1-.23.58,2.55,2.55,0,0,1-.37.48,2.4,2.4,0,0,1-.5.39,2.27,2.27,0,0,1-.57.24,3.19,3.19,0,0,1-.85.09H25.09v-.06h.07a.4.4,0,0,0,.36-.18.62.62,0,0,0,.11-.37V9.19a.76.76,0,0,0-.06-.32.4.4,0,0,0-.17-.19.48.48,0,0,0-.24-.06Zm1.07.18v4a.81.81,0,0,0,.09.43.48.48,0,0,0,.3.18,2.83,2.83,0,0,0,.58,0,3.53,3.53,0,0,0,.93-.1,1.71,1.71,0,0,0,.73-.49,1.87,1.87,0,0,0,.42-.68,2.56,2.56,0,0,0,.16-1,3,3,0,0,0-.13-.89,2.17,2.17,0,0,0-.39-.79,2,2,0,0,0-.75-.61A2.45,2.45,0,0,0,27,8.72,5.85,5.85,0,0,0,26.16,8.8Z"/><path class="cls-1" d="M76.07,2c.64,0,.94,0,1.71-.08a1.39,1.39,0,0,0,.64-.56A6.28,6.28,0,0,0,79.09.07l.51.19c.05,0,.11,0,.11.08a.05.05,0,0,1,0,0,.49.49,0,0,0-.13.14,6.68,6.68,0,0,1-1,1.34l1-.05.85-.08v.36a3.36,3.36,0,0,0-2,.46,1.24,1.24,0,0,0-.63,1c0,.73.67.86,1.14.86a3.6,3.6,0,0,0,.66-.06l0,.36A4.49,4.49,0,0,1,78,4.6a1.05,1.05,0,0,1-.78-1c0-.37.25-1.09,1.37-1.48a14.08,14.08,0,0,0-2.52.25Zm1.41-.4A4.1,4.1,0,0,0,76.57.37l.2-.2a8.1,8.1,0,0,1,1.18,1Z"/><path class="cls-1" d="M83.83,2l.45-.19a4.35,4.35,0,0,1,1.88-.53,1.21,1.21,0,0,1,1.25,1.35c0,1.76-1.85,2.16-2.43,2.29l-.22-.27a2.1,2.1,0,0,0,2-2.07c0-.13,0-1-.75-1a3.57,3.57,0,0,0-1.91.85Zm1-1.95A7.41,7.41,0,0,1,86.9.3l-.26.57a4.31,4.31,0,0,0-1.9-.59Z"/><path class="cls-1" d="M92.14.18c.11,0,.14,0,.14.07a1,1,0,0,1-.06.16c0,.14-.12,2.41-.12,2.72s0,1.06,1,1.06c1.17,0,1.52-1.11,1.68-1.61l.28.09c-.22.79-.62,2-2.15,2-1.33,0-1.44-.87-1.44-1.47s.11-2.75.1-3Zm1.75,1.61a3.67,3.67,0,0,0-.5-.69L93.62,1a3.18,3.18,0,0,1,.57.64ZM94.13.72a3.71,3.71,0,0,1,.56.56l-.32.22a4.45,4.45,0,0,0-.45-.63Z"/><path class="cls-1" d="M101,1c.11,0,.14,0,.14.05s0,.1,0,.12,0,.38,0,.46a1.09,1.09,0,0,1,1.18,1.14A1.23,1.23,0,0,1,101,4.09a1.83,1.83,0,0,1-1.19.82l-.12-.23a1.21,1.21,0,0,0,.88-.62,1.11,1.11,0,0,1-.84-.58l.24-.13a.84.84,0,0,0,.67.48,4.44,4.44,0,0,0,.06-.9c0-.49,0-.81,0-1a1.39,1.39,0,0,0-1,.58,2,2,0,0,0-.32.72c0,.27,0,.59,0,.85L99,4.13c0-.15,0-.49,0-1,0-.14,0-.78.06-1.53a3.45,3.45,0,0,0,0-.37l.39.06c.08,0,.12,0,.12,0s-.05.1-.06.13-.07.45-.1,1.07a1.6,1.6,0,0,1,1.27-.88c0-.17,0-.49-.06-.66Zm.15,2.06a2.61,2.61,0,0,1-.07.73,1,1,0,0,0,.76-1c0-.8-.53-.88-.71-.9C101.1,2.21,101.11,2.85,101.11,3.09Z"/></g></g></svg>