<svg id="レイヤー_1" data-name="レイヤー 1" xmlns="http://www.w3.org/2000/svg" viewBox="0 0 485.65 160.81"><defs><style>.cls-1{font-size:77.74px;font-family:JosefinSans-Italic, Josefin Sans;font-style:italic;}.cls-1,.cls-2,.cls-3,.cls-4{fill:#5c5e5f;}.cls-2{stroke:#fff;stroke-width:3px;}.cls-2,.cls-3{stroke-miterlimit:10;}.cls-3{stroke:#5c5e5f;}</style></defs><text class="cls-1" transform="translate(127.11 87.22)">Riv Round</text><line class="cls-2" x1="51.05" y1="158.05" x2="53.68" y2="159.49"/><polygon class="cls-3" points="26.45 72.4 26.59 71.95 27.45 73.5 27.31 73.95 26.45 72.4"/><polygon class="cls-3" points="48.83 33.82 48.87 33.72 49.07 34.08 49.03 34.18 48.83 33.82"/><polygon class="cls-3" points="45.18 87.3 45.2 87.22 45.36 87.5 45.33 87.59 45.18 87.3"/><polygon class="cls-3" points="62.59 56.7 62.61 56.33 63.31 57.19 63.29 57.57 62.59 56.7"/><path class="cls-4" d="M78.85,383.34,44.31,403.28a.48.48,0,0,0-.25.43v19.85C52.14,431,61,437.94,69.74,445L92,406.9C87.7,398.69,83.49,390.61,78.85,383.34Z" transform="translate(-44.06 -373.92)"/><path class="cls-4" d="M44.17,461.41a.48.48,0,0,0,.25.43l12.24,7.07,13.19-22.63c-8.72-7.07-17.6-14-25.68-21.45Z" transform="translate(-44.06 -373.92)"/><path class="cls-4" d="M94.52,374a.5.5,0,0,0-.5,0L79.7,382.26c4.64,7.27,8.85,15.35,13.11,23.56l14.31-24.56Z" transform="translate(-44.06 -373.92)"/><path class="cls-4" d="M134.19,395.46C125.42,407,117,418.67,109,430.85c8.72,13.78,19.15,25.59,34,31.42l4.12-2.38v-57Z" transform="translate(-44.06 -373.92)"/><path class="cls-4" d="M89.7,462.51c-3.65,6.29-8.33,13.16-14.91,16.56l21.06,12.16,11.74-6.78A108.65,108.65,0,0,0,89.7,462.51Z" transform="translate(-44.06 -373.92)"/><path class="cls-4" d="M111.62,478.87c0,.91,0,1.82,0,2.73l30.13-17.39c-14.81-5.83-25.24-17.64-34-31.43-5.4,8.22-10.61,16.66-15.55,25.5-.6,1.07-1.23,2.19-1.89,3.33a108.43,108.43,0,0,1,17.89,21.95l3.38-2C111.61,480.69,111.62,479.78,111.62,478.87Z" transform="translate(-44.06 -373.92)"/><path class="cls-4" d="M105.92,430.83c-4.24-6.92-8.1-14.28-11.9-21.59L71.25,445.55c5.82,4.72,11.55,9.52,16.91,14.59.64-1.11,1.26-2.21,1.85-3.27C95.06,447.84,100.39,439.22,105.92,430.83Z" transform="translate(-44.06 -373.92)"/><path class="cls-4" d="M57.4,469.35l15.82,9.13c6.59-3.42,11.28-10.32,14.94-16.63-5.36-5.07-11.09-9.87-16.91-14.59Z" transform="translate(-44.06 -373.92)"/><path class="cls-4" d="M131.38,394.48l-5-2.88-15.89-9.18-15.87,25.3c3.79,7.32,7.65,14.68,11.9,21.6C114.43,417.34,122.75,405.85,131.38,394.48Z" transform="translate(-44.06 -373.92)"/></svg>